<?xml version="1.0" encoding="UTF-8"?>
<svg xmlns="http://www.w3.org/2000/svg" xmlns:xlink="http://www.w3.org/1999/xlink" width="20px" height="20px" viewBox="0 0 20 20" version="1.1">
<g id="surface1">
<path style=" stroke:none;fill-rule:nonzero;fill:rgb(0%,0%,0%);fill-opacity:1;" d="M 9.53125 2.960938 C 8.378906 3.0625 7.34375 3.421875 6.367188 4.0625 C 5.96875 4.328125 5.726562 4.53125 5.34375 4.914062 C 4.757812 5.5 4.339844 6.101562 4.015625 6.828125 C 3.6875 7.550781 3.535156 8.148438 3.46875 8.953125 C 3.414062 9.5625 3.441406 10.234375 3.539062 10.742188 C 3.648438 11.332031 3.84375 11.890625 4.152344 12.5 C 4.804688 13.789062 5.605469 14.652344 6.796875 15.34375 C 7.578125 15.796875 8.34375 16.058594 9.253906 16.1875 C 9.609375 16.234375 10.632812 16.234375 10.96875 16.1875 C 12.066406 16.023438 12.960938 15.679688 13.867188 15.0625 C 15.195312 14.160156 16.1875 12.734375 16.609375 11.125 C 16.679688 10.867188 16.710938 10.726562 16.726562 10.578125 C 16.734375 10.53125 16.75 10.429688 16.757812 10.351562 C 16.796875 10.09375 16.796875 9.164062 16.765625 8.867188 C 16.675781 8.050781 16.488281 7.382812 16.140625 6.648438 C 15.835938 6 15.371094 5.367188 14.78125 4.796875 C 14.257812 4.289062 13.808594 3.976562 13.085938 3.625 C 12.417969 3.300781 11.777344 3.105469 11.011719 2.996094 C 10.800781 2.96875 9.757812 2.941406 9.53125 2.960938 Z M 10.464844 3.535156 C 11.804688 3.628906 12.96875 4.074219 13.964844 4.875 C 14.195312 5.054688 14.558594 5.40625 14.746094 5.617188 C 15.089844 6.007812 15.492188 6.640625 15.695312 7.109375 C 15.914062 7.625 16.09375 8.234375 16.140625 8.625 C 16.148438 8.6875 16.160156 8.757812 16.164062 8.78125 C 16.171875 8.800781 16.179688 8.992188 16.1875 9.210938 C 16.214844 9.898438 16.164062 10.507812 16.035156 10.992188 C 15.953125 11.289062 15.890625 11.429688 15.8125 11.449219 C 15.738281 11.46875 15.667969 11.4375 15.644531 11.375 C 15.632812 11.34375 15.625 10.921875 15.625 10.296875 C 15.625 9.679688 15.617188 9.21875 15.601562 9.140625 C 15.554688 8.828125 15.296875 8.476562 15.007812 8.335938 C 14.730469 8.195312 14.859375 8.203125 12.554688 8.207031 L 10.476562 8.210938 L 10.355469 8.265625 C 10 8.417969 9.738281 8.71875 9.648438 9.070312 C 9.613281 9.195312 9.609375 9.308594 9.609375 10.273438 C 9.609375 11.277344 9.609375 11.339844 9.570312 11.386719 L 9.539062 11.4375 L 8.75 11.441406 L 7.96875 11.445312 L 7.96875 11.363281 C 7.96875 11.316406 7.960938 11.203125 7.960938 11.113281 C 7.949219 10.945312 7.929688 10.40625 7.890625 9.445312 C 7.882812 9.164062 7.867188 8.828125 7.859375 8.703125 C 7.855469 8.570312 7.84375 8.269531 7.832031 8.027344 C 7.820312 7.785156 7.808594 7.5 7.804688 7.390625 C 7.796875 7.285156 7.792969 7.148438 7.792969 7.089844 L 7.792969 6.980469 L 7.609375 6.984375 L 7.425781 6.984375 L 7.414062 7.140625 C 7.40625 7.226562 7.390625 7.496094 7.382812 7.742188 C 7.371094 7.992188 7.351562 8.390625 7.34375 8.632812 C 7.332031 8.875 7.3125 9.269531 7.304688 9.511719 C 7.292969 9.753906 7.277344 10.140625 7.265625 10.371094 C 7.257812 10.601562 7.242188 10.9375 7.234375 11.117188 L 7.21875 11.445312 L 5.90625 11.445312 L 5.871094 10.71875 C 5.851562 10.320312 5.835938 9.941406 5.828125 9.882812 C 5.828125 9.824219 5.816406 9.632812 5.8125 9.453125 C 5.804688 9.273438 5.792969 9.113281 5.789062 9.09375 C 5.78125 9.054688 5.765625 9.050781 5.664062 9.054688 L 5.550781 9.054688 L 5.539062 9.1875 C 5.53125 9.265625 5.523438 9.4375 5.515625 9.578125 C 5.511719 9.71875 5.5 9.988281 5.488281 10.175781 C 5.476562 10.363281 5.464844 10.625 5.460938 10.761719 C 5.453125 10.898438 5.445312 11.105469 5.4375 11.226562 L 5.425781 11.445312 L 4.378906 11.445312 L 4.339844 11.382812 C 4.25 11.234375 4.121094 10.71875 4.0625 10.253906 C 4.03125 10.027344 4.023438 9.253906 4.046875 9.015625 C 4.191406 7.5 4.863281 6.140625 5.957031 5.140625 C 6.1875 4.929688 6.585938 4.625 6.828125 4.46875 C 7 4.355469 7.429688 4.132812 7.691406 4.015625 C 8.300781 3.742188 8.976562 3.582031 9.65625 3.539062 C 9.765625 3.535156 9.859375 3.527344 9.859375 3.523438 C 9.875 3.507812 10.179688 3.515625 10.464844 3.535156 Z M 14.675781 8.785156 C 14.875 8.875 15.023438 9.039062 15.101562 9.253906 C 15.140625 9.359375 15.140625 9.421875 15.15625 10.1875 C 15.164062 10.636719 15.167969 11.015625 15.164062 11.023438 C 15.15625 11.03125 15.125 10.953125 15.09375 10.847656 C 14.851562 10.019531 14.164062 9.390625 13.289062 9.183594 C 12.09375 8.902344 10.835938 9.632812 10.460938 10.820312 C 10.433594 10.90625 10.398438 11.085938 10.375 11.21875 C 10.359375 11.355469 10.335938 11.464844 10.328125 11.464844 C 10.320312 11.464844 10.273438 11.429688 10.226562 11.382812 C 10.148438 11.296875 10.140625 11.289062 10.132812 11.140625 C 10.109375 10.898438 10.117188 9.496094 10.136719 9.359375 C 10.1875 9.066406 10.355469 8.847656 10.601562 8.757812 C 10.660156 8.734375 11.0625 8.734375 12.625 8.734375 L 14.578125 8.742188 Z M 12.636719 9.835938 C 12.636719 9.894531 12.578125 10.648438 12.570312 10.742188 C 12.5625 10.78125 12.546875 11.003906 12.53125 11.242188 C 12.5 11.679688 12.484375 11.734375 12.398438 11.84375 C 12.359375 11.890625 12.351562 11.921875 12.351562 12.050781 C 12.351562 12.1875 12.359375 12.210938 12.414062 12.289062 C 12.585938 12.53125 12.957031 12.53125 13.117188 12.28125 C 13.160156 12.21875 13.171875 12.171875 13.179688 12.070312 C 13.1875 11.933594 13.167969 11.871094 13.085938 11.78125 C 13.058594 11.746094 13.046875 11.703125 13.046875 11.636719 C 13.042969 11.585938 13.039062 11.539062 13.039062 11.527344 C 13.035156 11.519531 13.027344 11.433594 13.019531 11.335938 C 13.011719 11.242188 12.996094 11.09375 12.984375 11.007812 C 12.960938 10.757812 12.890625 9.960938 12.890625 9.867188 L 12.890625 9.78125 L 13 9.796875 C 13.304688 9.832031 13.664062 9.984375 13.898438 10.171875 C 14.265625 10.460938 14.53125 10.949219 14.5625 11.378906 C 14.578125 11.539062 14.578125 11.542969 14.625 11.546875 C 14.65625 11.546875 14.78125 11.546875 14.914062 11.550781 L 15.148438 11.554688 L 15.140625 11.660156 C 15.121094 12.070312 14.960938 12.53125 14.703125 12.910156 C 14.570312 13.097656 14.285156 13.382812 14.101562 13.507812 C 13.84375 13.679688 13.601562 13.789062 13.3125 13.867188 C 13.085938 13.925781 12.59375 13.941406 12.351562 13.898438 C 12.03125 13.84375 11.726562 13.71875 11.429688 13.523438 C 11.277344 13.421875 10.960938 13.101562 10.839844 12.929688 C 10.570312 12.542969 10.390625 12.023438 10.390625 11.640625 L 10.390625 11.539062 L 10.464844 11.542969 C 10.503906 11.546875 10.632812 11.546875 10.75 11.546875 L 10.957031 11.542969 L 10.957031 11.445312 C 10.957031 11.296875 11.046875 10.984375 11.140625 10.789062 C 11.320312 10.4375 11.609375 10.144531 11.964844 9.96875 C 12.140625 9.882812 12.453125 9.789062 12.574219 9.785156 C 12.628906 9.785156 12.636719 9.789062 12.636719 9.835938 Z M 6.4375 12.109375 C 6.527344 12.164062 6.542969 12.226562 6.542969 12.5 C 6.542969 12.785156 6.523438 12.851562 6.425781 12.898438 C 6.378906 12.921875 6.265625 12.929688 5.773438 12.929688 C 5.085938 12.929688 5.09375 12.929688 4.9375 12.753906 C 4.726562 12.523438 4.75 12.234375 4.980469 12.113281 C 5.070312 12.070312 5.074219 12.070312 5.734375 12.074219 C 6.265625 12.078125 6.40625 12.085938 6.4375 12.109375 Z M 8.429688 12.097656 C 8.539062 12.144531 8.554688 12.1875 8.554688 12.492188 C 8.5625 12.792969 8.554688 12.820312 8.445312 12.890625 C 8.390625 12.925781 8.339844 12.929688 7.835938 12.929688 L 7.285156 12.929688 L 7.210938 12.863281 L 7.140625 12.796875 L 7.140625 12.503906 C 7.140625 12.21875 7.140625 12.210938 7.1875 12.15625 C 7.214844 12.128906 7.253906 12.097656 7.273438 12.089844 C 7.296875 12.078125 7.550781 12.070312 7.835938 12.070312 C 8.246094 12.070312 8.375 12.078125 8.429688 12.097656 Z M 9.414062 12.101562 C 9.515625 12.148438 9.53125 12.214844 9.53125 12.507812 C 9.53125 12.898438 9.507812 12.929688 9.1875 12.929688 C 8.867188 12.929688 8.847656 12.90625 8.847656 12.496094 C 8.847656 12.1875 8.859375 12.148438 8.972656 12.097656 C 9.058594 12.0625 9.34375 12.0625 9.414062 12.101562 Z M 6.367188 13.359375 C 6.40625 13.371094 6.460938 13.402344 6.484375 13.429688 C 6.53125 13.476562 6.53125 13.496094 6.539062 13.742188 C 6.546875 14.113281 6.503906 14.179688 6.238281 14.179688 C 6.070312 14.179688 5.96875 14.132812 5.828125 13.992188 C 5.65625 13.820312 5.601562 13.640625 5.675781 13.484375 C 5.726562 13.375 5.828125 13.339844 6.085938 13.339844 C 6.203125 13.339844 6.328125 13.351562 6.367188 13.359375 Z M 8.421875 13.367188 C 8.535156 13.414062 8.554688 13.460938 8.554688 13.75 C 8.5625 14.054688 8.542969 14.113281 8.429688 14.167969 C 8.367188 14.195312 8.296875 14.203125 7.828125 14.195312 C 7.351562 14.1875 7.289062 14.1875 7.242188 14.15625 C 7.152344 14.09375 7.128906 14.011719 7.128906 13.757812 C 7.128906 13.503906 7.148438 13.441406 7.25 13.378906 C 7.3125 13.34375 7.351562 13.339844 7.835938 13.339844 C 8.234375 13.339844 8.375 13.34375 8.421875 13.367188 Z M 9.414062 13.367188 C 9.511719 13.421875 9.53125 13.484375 9.53125 13.757812 C 9.53125 14.15625 9.484375 14.210938 9.140625 14.195312 C 8.964844 14.1875 8.960938 14.1875 8.90625 14.125 L 8.847656 14.0625 L 8.847656 13.773438 C 8.847656 13.507812 8.851562 13.476562 8.890625 13.429688 C 8.914062 13.398438 8.949219 13.367188 8.972656 13.359375 C 9.046875 13.328125 9.351562 13.335938 9.414062 13.367188 Z M 10.542969 13.496094 C 10.636719 13.582031 10.796875 13.71875 10.902344 13.796875 L 11.09375 13.9375 L 11.046875 13.96875 C 10.917969 14.070312 10.5625 14.160156 10.273438 14.160156 L 10.140625 14.160156 L 10.125 13.957031 C 10.117188 13.84375 10.117188 13.679688 10.121094 13.59375 C 10.125 13.445312 10.132812 13.429688 10.179688 13.386719 C 10.21875 13.355469 10.261719 13.339844 10.304688 13.339844 C 10.367188 13.339844 10.398438 13.359375 10.542969 13.496094 Z M 12.109375 14.492188 C 12.164062 14.523438 12.570312 14.628906 12.726562 14.65625 C 12.859375 14.675781 12.882812 14.6875 12.882812 14.71875 C 12.882812 14.738281 12.875 14.761719 12.859375 14.769531 C 12.835938 14.789062 12.890625 14.824219 12.921875 14.8125 C 12.9375 14.804688 12.960938 14.8125 12.976562 14.828125 C 13 14.851562 13 14.859375 12.976562 14.878906 C 12.960938 14.890625 12.941406 14.902344 12.929688 14.902344 C 12.921875 14.902344 12.910156 14.910156 12.910156 14.921875 C 12.910156 14.929688 12.886719 14.941406 12.859375 14.941406 C 12.828125 14.941406 12.8125 14.945312 12.820312 14.953125 C 12.859375 14.992188 12.3125 15.230469 11.921875 15.34375 L 11.875 15.351562 L 11.875 14.394531 L 11.976562 14.4375 C 12.03125 14.457031 12.089844 14.484375 12.109375 14.492188 Z M 11.117188 14.53125 L 11.347656 14.53125 L 11.347656 15.488281 L 11.296875 15.507812 C 11.269531 15.519531 11.21875 15.527344 11.179688 15.527344 C 11.117188 15.527344 11.117188 15.523438 11.109375 15.433594 L 11.101562 15.34375 L 11.09375 15.539062 L 10.914062 15.5625 C 10.8125 15.578125 10.597656 15.59375 10.4375 15.601562 L 10.136719 15.609375 L 10.132812 15.460938 C 10.132812 15.378906 10.132812 15.195312 10.132812 15.058594 C 10.132812 14.917969 10.132812 14.742188 10.132812 14.667969 L 10.136719 14.53125 L 10.414062 14.53125 C 10.5625 14.53125 10.695312 14.527344 10.703125 14.519531 C 10.707031 14.515625 10.75 14.515625 10.796875 14.519531 C 10.84375 14.523438 10.988281 14.53125 11.117188 14.53125 Z M 8.445312 14.640625 C 8.484375 14.65625 8.519531 14.691406 8.53125 14.71875 C 8.554688 14.769531 8.5625 15.25 8.542969 15.328125 C 8.53125 15.367188 8.53125 15.367188 8.5 15.335938 C 8.484375 15.320312 8.476562 15.3125 8.484375 15.328125 C 8.507812 15.367188 8.335938 15.34375 8.109375 15.273438 C 7.765625 15.171875 7.0625 14.835938 7.066406 14.773438 C 7.066406 14.757812 7.25 14.679688 7.402344 14.640625 C 7.539062 14.597656 8.363281 14.601562 8.445312 14.640625 Z M 9.421875 14.648438 C 9.523438 14.714844 9.53125 14.742188 9.53125 15.179688 L 9.53125 15.589844 L 9.449219 15.578125 C 9.402344 15.570312 9.347656 15.554688 9.328125 15.539062 C 9.304688 15.53125 9.273438 15.523438 9.265625 15.523438 C 9.25 15.527344 9.242188 15.515625 9.25 15.492188 C 9.257812 15.460938 9.257812 15.460938 9.234375 15.492188 C 9.210938 15.515625 9.1875 15.519531 9.09375 15.503906 C 9.027344 15.492188 8.957031 15.484375 8.9375 15.484375 C 8.890625 15.476562 8.871094 15.414062 8.910156 15.386719 C 8.929688 15.371094 8.929688 15.367188 8.90625 15.375 C 8.875 15.386719 8.871094 15.351562 8.859375 15.085938 C 8.84375 14.652344 8.871094 14.609375 9.1875 14.609375 C 9.332031 14.609375 9.375 14.617188 9.421875 14.648438 Z M 13.21875 14.75 C 13.175781 14.78125 13.148438 14.792969 13.121094 14.789062 C 13.109375 14.789062 13.105469 14.792969 13.105469 14.804688 C 13.105469 14.8125 13.085938 14.832031 13.0625 14.84375 C 13.019531 14.867188 13.019531 14.863281 13.054688 14.835938 C 13.09375 14.804688 13.09375 14.804688 13.054688 14.804688 C 13.035156 14.804688 13.03125 14.796875 13.042969 14.789062 C 13.054688 14.789062 13.0625 14.773438 13.054688 14.765625 C 13.046875 14.753906 13.058594 14.746094 13.074219 14.746094 C 13.09375 14.746094 13.105469 14.738281 13.105469 14.726562 C 13.105469 14.71875 13.140625 14.710938 13.183594 14.710938 C 13.261719 14.71875 13.261719 14.71875 13.21875 14.75 Z M 13.21875 14.75 "/>
<path style=" stroke:none;fill-rule:nonzero;fill:rgb(0%,0%,0%);fill-opacity:1;" d="M 12.257812 4.363281 C 12.230469 4.390625 12.203125 4.433594 12.195312 4.460938 C 12.179688 4.515625 12.179688 4.515625 11.941406 4.546875 C 11.851562 4.558594 11.710938 4.59375 11.628906 4.625 C 11.484375 4.683594 11.230469 4.832031 11.230469 4.859375 C 11.230469 4.878906 11.503906 5.203125 11.519531 5.203125 C 11.527344 5.203125 11.601562 5.179688 11.6875 5.140625 C 11.859375 5.078125 12.070312 5.027344 12.117188 5.046875 C 12.132812 5.054688 12.148438 5.074219 12.148438 5.09375 C 12.148438 5.15625 12.222656 5.234375 12.28125 5.234375 C 12.359375 5.234375 12.832031 5.140625 12.878906 5.113281 C 12.964844 5.066406 12.992188 4.984375 12.945312 4.898438 C 12.925781 4.859375 12.773438 4.6875 12.515625 4.40625 C 12.414062 4.296875 12.335938 4.285156 12.257812 4.363281 Z M 12.257812 4.363281 "/>
<path style=" stroke:none;fill-rule:nonzero;fill:rgb(0%,0%,0%);fill-opacity:1;" d="M 7.582031 4.4375 C 7.507812 4.527344 7.445312 4.984375 7.429688 5.535156 L 7.414062 5.921875 L 7.492188 5.90625 C 7.589844 5.886719 7.664062 5.882812 7.761719 5.90625 L 7.835938 5.921875 L 7.824219 5.6875 C 7.800781 5.261719 7.777344 5 7.742188 4.757812 C 7.703125 4.496094 7.640625 4.367188 7.582031 4.4375 Z M 7.582031 4.4375 "/>
<path style=" stroke:none;fill-rule:nonzero;fill:rgb(0%,0%,0%);fill-opacity:1;" d="M 13.367188 5.257812 C 13.304688 5.3125 13.222656 5.382812 13.1875 5.414062 L 13.125 5.464844 L 13.171875 5.570312 C 13.199219 5.625 13.230469 5.734375 13.242188 5.808594 C 13.269531 5.964844 13.257812 6.34375 13.222656 6.4375 C 13.199219 6.5 13.195312 6.503906 13.085938 6.503906 C 12.984375 6.503906 12.96875 6.507812 12.921875 6.5625 C 12.863281 6.632812 12.859375 6.6875 12.90625 6.757812 C 12.984375 6.875 13.261719 7.203125 13.289062 7.214844 C 13.363281 7.242188 13.398438 7.21875 13.585938 7.023438 C 13.84375 6.761719 13.90625 6.6875 13.90625 6.644531 C 13.90625 6.625 13.871094 6.5625 13.828125 6.507812 L 13.746094 6.398438 L 13.757812 6.210938 C 13.78125 5.898438 13.722656 5.585938 13.59375 5.335938 C 13.492188 5.140625 13.503906 5.140625 13.367188 5.257812 Z M 13.367188 5.257812 "/>
<path style=" stroke:none;fill-rule:nonzero;fill:rgb(0%,0%,0%);fill-opacity:1;" d="M 10.789062 5.296875 C 10.632812 5.539062 10.566406 5.789062 10.554688 6.148438 L 10.539062 6.429688 L 10.476562 6.5 C 10.441406 6.539062 10.40625 6.597656 10.398438 6.625 C 10.382812 6.695312 10.429688 6.769531 10.679688 7.023438 C 10.828125 7.179688 10.882812 7.226562 10.921875 7.226562 C 10.960938 7.226562 11.023438 7.175781 11.1875 7 C 11.40625 6.773438 11.4375 6.71875 11.417969 6.632812 C 11.398438 6.546875 11.332031 6.503906 11.21875 6.503906 C 11.140625 6.503906 11.113281 6.496094 11.101562 6.46875 C 11.09375 6.453125 11.085938 6.328125 11.078125 6.203125 C 11.070312 5.949219 11.089844 5.828125 11.179688 5.601562 L 11.226562 5.492188 L 11.144531 5.4375 C 11.101562 5.40625 11.023438 5.351562 10.976562 5.3125 C 10.84375 5.203125 10.84375 5.203125 10.789062 5.296875 Z M 10.789062 5.296875 "/>
<path style=" stroke:none;fill-rule:nonzero;fill:rgb(0%,0%,0%);fill-opacity:1;" d="M 6.386719 5.429688 C 6.335938 5.539062 6.28125 5.59375 6.164062 5.65625 C 6.082031 5.699219 6.082031 5.71875 6.171875 5.765625 C 6.269531 5.820312 6.335938 5.890625 6.390625 5.988281 C 6.414062 6.035156 6.441406 6.074219 6.449219 6.074219 C 6.457031 6.074219 6.480469 6.039062 6.5 6 C 6.546875 5.914062 6.664062 5.800781 6.757812 5.75 C 6.828125 5.71875 6.820312 5.695312 6.722656 5.648438 C 6.632812 5.601562 6.5625 5.523438 6.503906 5.414062 C 6.476562 5.367188 6.453125 5.332031 6.445312 5.332031 C 6.4375 5.332031 6.414062 5.375 6.386719 5.429688 Z M 6.386719 5.429688 "/>
<path style=" stroke:none;fill-rule:nonzero;fill:rgb(0%,0%,0%);fill-opacity:1;" d="M 11.757812 5.625 C 11.582031 5.679688 11.554688 5.75 11.554688 6.085938 C 11.558594 6.390625 11.585938 6.457031 11.722656 6.515625 C 11.914062 6.589844 12.109375 6.46875 12.109375 6.28125 C 12.109375 6.210938 12.109375 6.210938 12.023438 6.210938 C 11.949219 6.210938 11.933594 6.21875 11.933594 6.246094 C 11.933594 6.289062 11.875 6.347656 11.835938 6.347656 C 11.769531 6.347656 11.757812 6.304688 11.757812 6.074219 C 11.757812 5.921875 11.765625 5.839844 11.78125 5.824219 C 11.820312 5.789062 11.871094 5.796875 11.90625 5.851562 C 11.933594 5.890625 11.953125 5.898438 12.035156 5.898438 L 12.132812 5.898438 L 12.121094 5.835938 C 12.105469 5.757812 12.0625 5.695312 12.007812 5.65625 C 11.953125 5.617188 11.820312 5.601562 11.757812 5.625 Z M 11.757812 5.625 "/>
<path style=" stroke:none;fill-rule:nonzero;fill:rgb(0%,0%,0%);fill-opacity:1;" d="M 12.375 5.640625 C 12.253906 5.6875 12.226562 5.769531 12.226562 6.078125 C 12.226562 6.375 12.25 6.449219 12.367188 6.507812 C 12.507812 6.578125 12.703125 6.523438 12.761719 6.398438 C 12.789062 6.335938 12.796875 6.28125 12.789062 6.054688 C 12.78125 5.820312 12.777344 5.777344 12.742188 5.726562 C 12.65625 5.617188 12.515625 5.578125 12.375 5.640625 Z M 12.578125 5.835938 C 12.585938 5.859375 12.597656 5.964844 12.597656 6.074219 C 12.597656 6.292969 12.578125 6.347656 12.507812 6.347656 C 12.4375 6.347656 12.421875 6.292969 12.421875 6.074219 C 12.421875 5.855469 12.4375 5.800781 12.507812 5.800781 C 12.539062 5.800781 12.566406 5.816406 12.578125 5.835938 Z M 12.578125 5.835938 "/>
<path style=" stroke:none;fill-rule:nonzero;fill:rgb(0%,0%,0%);fill-opacity:1;" d="M 7.476562 6.023438 C 7.363281 6.0625 7.289062 6.132812 7.234375 6.234375 C 7.085938 6.523438 7.292969 6.855469 7.617188 6.855469 C 8.003906 6.855469 8.199219 6.417969 7.941406 6.136719 C 7.839844 6.023438 7.617188 5.96875 7.476562 6.023438 Z M 7.742188 6.328125 C 7.804688 6.386719 7.796875 6.5 7.726562 6.554688 C 7.59375 6.667969 7.40625 6.546875 7.464844 6.382812 C 7.503906 6.273438 7.65625 6.242188 7.742188 6.328125 Z M 7.742188 6.328125 "/>
<path style=" stroke:none;fill-rule:nonzero;fill:rgb(0%,0%,0%);fill-opacity:1;" d="M 6.855469 6.554688 C 6.507812 6.679688 5.933594 6.992188 5.875 7.09375 C 5.8125 7.191406 5.992188 7.214844 6.308594 7.148438 C 6.5625 7.09375 7.195312 6.914062 7.25 6.882812 C 7.257812 6.875 7.234375 6.835938 7.199219 6.785156 C 7.164062 6.734375 7.117188 6.65625 7.097656 6.605469 C 7.078125 6.554688 7.058594 6.507812 7.054688 6.5 C 7.046875 6.492188 6.957031 6.515625 6.855469 6.554688 Z M 6.855469 6.554688 "/>
<path style=" stroke:none;fill-rule:nonzero;fill:rgb(0%,0%,0%);fill-opacity:1;" d="M 8.125 6.652344 C 8.09375 6.71875 8.03125 6.804688 7.996094 6.835938 C 7.960938 6.867188 7.929688 6.898438 7.929688 6.902344 C 7.929688 6.917969 8.417969 7.1875 8.671875 7.3125 C 8.992188 7.472656 9.183594 7.539062 9.226562 7.5 C 9.242188 7.484375 9.257812 7.464844 9.257812 7.453125 C 9.257812 7.367188 8.761719 6.902344 8.445312 6.6875 C 8.179688 6.503906 8.203125 6.507812 8.125 6.652344 Z M 8.125 6.652344 "/>
<path style=" stroke:none;fill-rule:nonzero;fill:rgb(0%,0%,0%);fill-opacity:1;" d="M 14.453125 6.804688 L 14.453125 7.03125 L 14.226562 7.035156 L 13.992188 7.039062 L 13.992188 7.414062 L 14.226562 7.417969 L 14.453125 7.421875 L 14.453125 7.835938 L 14.65625 7.828125 L 14.851562 7.820312 L 14.867188 7.421875 L 15.292969 7.421875 L 15.292969 7.03125 L 14.863281 7.03125 L 14.863281 6.925781 C 14.863281 6.867188 14.859375 6.765625 14.851562 6.703125 L 14.835938 6.582031 L 14.453125 6.582031 Z M 14.453125 6.804688 "/>
<path style=" stroke:none;fill-rule:nonzero;fill:rgb(0%,0%,0%);fill-opacity:1;" d="M 11.507812 7.21875 L 11.375 7.421875 L 11.472656 7.46875 C 11.851562 7.648438 12.320312 7.679688 12.710938 7.546875 C 12.929688 7.472656 12.921875 7.496094 12.8125 7.265625 C 12.757812 7.152344 12.710938 7.058594 12.707031 7.054688 C 12.703125 7.054688 12.660156 7.0625 12.609375 7.082031 C 12.351562 7.15625 12.007812 7.148438 11.765625 7.0625 L 11.640625 7.015625 Z M 11.507812 7.21875 "/>
<path style=" stroke:none;fill-rule:nonzero;fill:rgb(0%,0%,0%);fill-opacity:1;" d="M 5.648438 7.230469 C 5.597656 7.296875 5.527344 7.808594 5.527344 8.128906 L 5.527344 8.28125 L 5.8125 8.28125 L 5.804688 8.0625 C 5.796875 7.78125 5.75 7.296875 5.722656 7.242188 C 5.699219 7.203125 5.679688 7.195312 5.648438 7.230469 Z M 5.648438 7.230469 "/>
<path style=" stroke:none;fill-rule:nonzero;fill:rgb(0%,0%,0%);fill-opacity:1;" d="M 8.757812 7.992188 C 8.699219 8.105469 8.636719 8.171875 8.539062 8.234375 C 8.484375 8.265625 8.4375 8.296875 8.4375 8.300781 C 8.4375 8.308594 8.46875 8.328125 8.5 8.34375 C 8.605469 8.390625 8.6875 8.476562 8.742188 8.578125 C 8.765625 8.628906 8.796875 8.671875 8.804688 8.671875 C 8.816406 8.671875 8.851562 8.625 8.882812 8.5625 C 8.929688 8.484375 8.976562 8.4375 9.054688 8.386719 C 9.109375 8.351562 9.160156 8.3125 9.160156 8.3125 C 9.160156 8.304688 9.117188 8.273438 9.0625 8.242188 C 8.972656 8.1875 8.894531 8.09375 8.84375 7.984375 C 8.8125 7.914062 8.796875 7.914062 8.757812 7.992188 Z M 8.757812 7.992188 "/>
<path style=" stroke:none;fill-rule:nonzero;fill:rgb(0%,0%,0%);fill-opacity:1;" d="M 5.519531 8.382812 C 5.46875 8.414062 5.425781 8.460938 5.394531 8.519531 C 5.328125 8.648438 5.34375 8.765625 5.445312 8.867188 C 5.539062 8.960938 5.632812 8.984375 5.789062 8.941406 L 5.898438 8.914062 L 5.898438 8.960938 C 5.898438 9 5.925781 9.019531 6.085938 9.09375 C 6.339844 9.210938 6.546875 9.28125 6.703125 9.289062 C 6.828125 9.300781 6.835938 9.296875 6.835938 9.261719 C 6.835938 9.234375 6.792969 9.1875 6.714844 9.125 C 6.546875 8.992188 6.1875 8.757812 6.082031 8.71875 C 6.007812 8.6875 5.996094 8.671875 5.984375 8.609375 C 5.96875 8.503906 5.90625 8.421875 5.8125 8.378906 C 5.707031 8.328125 5.613281 8.328125 5.519531 8.382812 Z M 5.746094 8.570312 C 5.820312 8.632812 5.765625 8.769531 5.667969 8.769531 C 5.605469 8.769531 5.546875 8.71875 5.546875 8.664062 C 5.546875 8.554688 5.667969 8.496094 5.746094 8.570312 Z M 5.746094 8.570312 "/>
<path style=" stroke:none;fill-rule:nonzero;fill:rgb(0%,0%,0%);fill-opacity:1;" d="M 5.085938 8.804688 C 4.730469 8.964844 4.445312 9.160156 4.484375 9.21875 C 4.5 9.242188 4.6875 9.242188 4.804688 9.21875 C 4.960938 9.179688 5.34375 9.0625 5.382812 9.03125 C 5.414062 9.007812 5.414062 9 5.394531 8.96875 C 5.382812 8.953125 5.351562 8.894531 5.328125 8.84375 C 5.273438 8.734375 5.25 8.730469 5.085938 8.804688 Z M 5.085938 8.804688 "/>
<path style=" stroke:none;fill-rule:nonzero;fill:rgb(0%,0%,0%);fill-opacity:1;" d="M 5.835938 12.417969 C 5.785156 12.46875 5.789062 12.570312 5.84375 12.605469 C 5.976562 12.699219 6.132812 12.539062 6.023438 12.421875 C 5.980469 12.375 5.875 12.371094 5.835938 12.417969 Z M 5.835938 12.417969 "/>
<path style=" stroke:none;fill-rule:nonzero;fill:rgb(0%,0%,0%);fill-opacity:1;" d="M 7.976562 12.34375 C 7.871094 12.40625 7.84375 12.492188 7.898438 12.59375 C 7.984375 12.757812 8.25 12.695312 8.25 12.507812 C 8.25 12.460938 8.234375 12.425781 8.195312 12.382812 C 8.117188 12.304688 8.054688 12.296875 7.976562 12.34375 Z M 7.976562 12.34375 "/>
<path style=" stroke:none;fill-rule:nonzero;fill:rgb(0%,0%,0%);fill-opacity:1;" d="M 7.96875 13.621094 C 7.851562 13.6875 7.839844 13.820312 7.9375 13.921875 C 8 13.984375 8.015625 13.988281 8.082031 13.976562 C 8.171875 13.960938 8.261719 13.871094 8.261719 13.789062 C 8.261719 13.742188 8.242188 13.707031 8.195312 13.660156 C 8.125 13.585938 8.054688 13.578125 7.96875 13.621094 Z M 7.96875 13.621094 "/>
<path style=" stroke:none;fill-rule:nonzero;fill:rgb(0%,0%,0%);fill-opacity:1;" d="M 10.375 15.429688 C 10.375 15.5 10.382812 15.527344 10.382812 15.492188 C 10.390625 15.460938 10.390625 15.398438 10.382812 15.367188 C 10.382812 15.332031 10.375 15.359375 10.375 15.429688 Z M 10.375 15.429688 "/>
<path style=" stroke:none;fill-rule:nonzero;fill:rgb(0%,0%,0%);fill-opacity:1;" d="M 9.148438 15.429688 C 9.148438 15.445312 9.167969 15.457031 9.1875 15.460938 C 9.203125 15.460938 9.214844 15.457031 9.207031 15.445312 C 9.203125 15.4375 9.1875 15.433594 9.179688 15.4375 C 9.171875 15.445312 9.15625 15.4375 9.15625 15.429688 C 9.148438 15.417969 9.148438 15.421875 9.148438 15.429688 Z M 9.148438 15.429688 "/>
</g>
</svg>
