<?xml version="1.0" encoding="UTF-8" standalone="no" ?>
<!DOCTYPE svg PUBLIC "-//W3C//DTD SVG 1.1//EN" "http://www.w3.org/Graphics/SVG/1.1/DTD/svg11.dtd">
<svg xmlns="http://www.w3.org/2000/svg" xmlns:xlink="http://www.w3.org/1999/xlink" version="1.1" width="26" height="20" viewBox="0 0 20 20" xml:space="preserve">
<desc>Created with Fabric.js 5.2.4</desc>
<defs>
</defs>
<g transform="matrix(1 0 0 1 540 540)" id="ec210274-8e03-4be0-bc43-398edd6052c5"  >
<rect style="stroke: none; stroke-width: 1; stroke-dasharray: none; stroke-linecap: butt; stroke-dashoffset: 0; stroke-linejoin: miter; stroke-miterlimit: 4; fill: rgb(255,255,255); fill-rule: nonzero; opacity: 1; visibility: hidden;" vector-effect="non-scaling-stroke"  x="-540" y="-540" rx="0" ry="0" width="1080" height="1080" />
</g>
<g transform="matrix(1 0 0 1 540 540)" id="e8d0d3b4-01d8-48b3-876c-9faf03cda683"  >
</g>
<g transform="matrix(1 0 0 1 540 540)"  >
<g style="" vector-effect="non-scaling-stroke"   >
		<g transform="matrix(0.13 0 0 -0.13 0 0)"  >
<path style="stroke: none; stroke-width: 1; stroke-dasharray: none; stroke-linecap: butt; stroke-dashoffset: 0; stroke-linejoin: miter; stroke-miterlimit: 4; fill: rgb(255,255,255); fill-rule: nonzero; opacity: 1;" vector-effect="non-scaling-stroke"  transform=" translate(-5178.52, -5330.88)" d="M 4880 8724 C 4290 8673 3759 8488 3260 8159 C 3056 8025 2931 7921 2735 7725 C 2436 7425 2222 7117 2055 6745 C 1888 6374 1810 6069 1775 5655 C 1748 5344 1762 4999 1811 4740 C 1868 4438 1969 4151 2126 3840 C 2460 3179 2870 2738 3480 2385 C 3880 2152 4273 2018 4738 1953 C 4920 1928 5443 1928 5615 1953 C 6178 2036 6637 2213 7099 2527 C 7780 2990 8289 3721 8504 4544 C 8539 4675 8555 4749 8565 4825 C 8568 4847 8575 4899 8580 4940 C 8599 5072 8601 5548 8584 5700 C 8538 6118 8442 6461 8265 6836 C 8108 7168 7870 7493 7569 7785 C 7301 8044 7070 8203 6699 8384 C 6358 8550 6030 8650 5638 8706 C 5530 8721 4997 8734 4880 8724 z M 5358 8430 C 6044 8382 6640 8154 7150 7745 C 7267 7651 7454 7473 7550 7365 C 7726 7165 7931 6841 8036 6599 C 8149 6335 8241 6024 8265 5825 C 8269 5792 8274 5756 8277 5745 C 8279 5734 8284 5635 8289 5525 C 8302 5171 8275 4860 8210 4613 C 8169 4460 8135 4388 8097 4378 C 8058 4369 8022 4384 8010 4415 C 8004 4431 8000 4648 8000 4968 C 8000 5285 7996 5521 7989 5560 C 7964 5721 7832 5899 7684 5973 C 7542 6044 7609 6041 6428 6038 L 5365 6035 L 5302 6008 C 5121 5930 4986 5777 4939 5596 C 4922 5532 4921 5474 4920 4980 C 4920 4466 4919 4434 4901 4410 L 4883 4385 L 4481 4382 L 4080 4380 L 4080 4422 C 4080 4446 4077 4503 4075 4550 C 4070 4635 4059 4911 4040 5405 C 4035 5548 4028 5719 4025 5785 C 4022 5851 4015 6006 4010 6130 C 4005 6254 3998 6400 3995 6455 C 3993 6510 3990 6580 3990 6610 L 3990 6666 L 3896 6665 L 3802 6665 L 3796 6585 C 3792 6541 3785 6402 3780 6275 C 3774 6149 3765 5944 3760 5820 C 3754 5696 3745 5494 3740 5370 C 3734 5246 3726 5048 3720 4930 C 3715 4812 3708 4640 3704 4548 L 3697 4380 L 3360 4380 L 3024 4380 L 3006 4753 C 2997 4957 2987 5150 2985 5180 C 2983 5210 2978 5309 2975 5400 C 2971 5491 2966 5574 2964 5585 C 2960 5603 2951 5606 2900 5605 L 2842 5605 L 2836 5535 C 2833 5497 2828 5407 2825 5335 C 2822 5264 2815 5126 2810 5030 C 2805 4934 2798 4799 2795 4730 C 2792 4661 2787 4554 2784 4493 L 2778 4380 L 2510 4380 L 2242 4380 L 2222 4413 C 2175 4488 2110 4752 2079 4990 C 2064 5106 2059 5502 2071 5625 C 2146 6399 2490 7095 3050 7607 C 3169 7716 3372 7873 3495 7953 C 3585 8010 3804 8125 3938 8185 C 4250 8323 4595 8406 4945 8427 C 5000 8430 5047 8434 5049 8436 C 5057 8443 5212 8440 5358 8430 z M 7514 5742 C 7616 5695 7692 5611 7732 5502 C 7751 5449 7753 5415 7760 5025 C 7765 4794 7766 4601 7763 4596 C 7760 4591 7744 4632 7728 4686 C 7603 5110 7253 5433 6805 5538 C 6192 5682 5548 5309 5356 4700 C 5342 4657 5323 4564 5313 4495 C 5304 4426 5292 4370 5288 4370 C 5283 4370 5260 4389 5236 4413 C 5195 4455 5193 4459 5187 4535 C 5176 4659 5179 5378 5190 5448 C 5215 5598 5302 5710 5429 5756 C 5458 5767 5664 5769 6465 5767 L 7465 5765 L 7514 5742 z M 6470 5205 C 6470 5174 6441 4789 6436 4740 C 6433 4721 6424 4606 6415 4485 C 6399 4260 6393 4233 6348 4177 C 6328 4153 6325 4137 6325 4070 C 6325 3999 6328 3988 6355 3948 C 6443 3823 6634 3825 6717 3952 C 6738 3984 6745 4008 6748 4060 C 6752 4130 6742 4162 6701 4209 C 6686 4226 6680 4248 6679 4282 C 6678 4308 6677 4333 6676 4338 C 6674 4342 6670 4386 6666 4435 C 6662 4485 6654 4561 6649 4605 C 6635 4732 6600 5141 6600 5189 L 6600 5232 L 6657 5225 C 6813 5206 6997 5129 7117 5033 C 7305 4883 7441 4634 7457 4414 C 7463 4332 7464 4330 7489 4329 C 7503 4328 7569 4327 7635 4326 L 7755 4325 L 7752 4270 C 7742 4059 7659 3824 7527 3630 C 7461 3534 7314 3387 7219 3323 C 7089 3235 6965 3179 6815 3140 C 6701 3110 6449 3102 6324 3124 C 6161 3152 6005 3216 5853 3317 C 5774 3369 5612 3532 5550 3620 C 5413 3818 5320 4083 5320 4281 L 5320 4332 L 5358 4330 C 5378 4329 5443 4328 5503 4329 L 5610 4330 L 5610 4379 C 5610 4455 5655 4616 5704 4715 C 5795 4897 5944 5046 6126 5136 C 6217 5181 6377 5229 6438 5230 C 6466 5230 6470 5227 6470 5205 z M 3296 4041 C 3342 4011 3350 3980 3350 3840 C 3350 3694 3340 3661 3290 3635 C 3266 3623 3209 3620 2955 3620 C 2604 3620 2609 3619 2527 3710 C 2420 3828 2431 3977 2550 4038 C 2595 4061 2598 4061 2935 4058 C 3208 4056 3279 4052 3296 4041 z M 4315 4046 C 4372 4022 4379 4001 4381 3844 C 4384 3690 4379 3676 4323 3639 C 4297 3622 4270 3620 4012 3620 L 3730 3620 L 3692 3654 L 3655 3688 L 3655 3838 C 3655 3985 3656 3989 3680 4015 C 3694 4030 3714 4046 3725 4050 C 3736 4055 3866 4059 4013 4059 C 4222 4060 4288 4057 4315 4046 z M 4820 4045 C 4871 4019 4880 3986 4880 3835 C 4880 3636 4867 3620 4705 3620 C 4540 3620 4530 3632 4530 3842 C 4530 4001 4536 4021 4594 4046 C 4638 4065 4783 4064 4820 4045 z M 3261 3400 C 3280 3394 3307 3378 3321 3364 C 3344 3340 3345 3330 3348 3205 C 3353 3014 3330 2980 3194 2980 C 3109 2980 3056 3004 2985 3075 C 2897 3164 2868 3256 2906 3335 C 2932 3391 2985 3410 3115 3410 C 3176 3410 3241 3405 3261 3400 z M 4313 3396 C 4370 3373 4379 3348 4381 3199 C 4384 3045 4374 3014 4315 2986 C 4284 2971 4247 2969 4007 2972 C 3764 2975 3732 2977 3708 2993 C 3662 3025 3650 3066 3650 3195 C 3650 3326 3660 3358 3713 3390 C 3743 3408 3765 3410 4013 3410 C 4216 3410 4288 3407 4313 3396 z M 4820 3395 C 4870 3369 4880 3336 4880 3195 C 4880 2991 4856 2964 4681 2972 C 4590 2976 4587 2977 4559 3008 L 4530 3040 L 4530 3189 C 4530 3325 4532 3339 4551 3364 C 4563 3379 4582 3396 4594 3400 C 4631 3415 4788 3412 4820 3395 z M 5398 3330 C 5446 3286 5529 3217 5582 3177 L 5679 3105 L 5657 3088 C 5590 3035 5407 2990 5260 2990 L 5192 2990 L 5185 3094 C 5181 3151 5179 3235 5182 3280 C 5185 3355 5188 3364 5213 3386 C 5231 3402 5254 3410 5276 3410 C 5307 3410 5324 3399 5398 3330 z M 6199 2821 C 6229 2805 6435 2750 6515 2737 C 6583 2726 6595 2721 6595 2704 C 6595 2694 6591 2682 6585 2678 C 6572 2668 6599 2650 6616 2657 C 6624 2660 6636 2656 6643 2648 C 6655 2637 6655 2632 6644 2622 C 6637 2615 6626 2610 6620 2610 C 6615 2610 6610 2606 6610 2600 C 6610 2595 6598 2590 6583 2590 C 6569 2590 6560 2587 6563 2583 C 6584 2563 6303 2442 6103 2385 L 6080 2379 L 6080 2624 L 6080 2870 L 6131 2849 C 6160 2838 6190 2825 6199 2821 z M 5691 2800 L 5810 2800 L 5810 2555 L 5810 2310 L 5784 2300 C 5770 2294 5743 2290 5725 2290 C 5692 2290 5691 2291 5687 2338 L 5684 2385 L 5682 2334 L 5680 2283 L 5588 2271 C 5537 2264 5426 2256 5343 2253 L 5190 2247 L 5189 2323 C 5188 2366 5188 2459 5188 2530 C 5188 2602 5188 2691 5189 2730 L 5190 2799 L 5331 2799 C 5409 2799 5476 2802 5479 2806 C 5482 2809 5505 2809 5529 2806 C 5553 2803 5626 2800 5691 2800 z M 4325 2745 C 4343 2736 4362 2718 4369 2704 C 4381 2678 4385 2433 4374 2392 C 4368 2371 4367 2371 4353 2387 C 4345 2397 4341 2399 4345 2393 C 4355 2373 4268 2385 4151 2420 C 3977 2472 3616 2644 3618 2675 C 3618 2685 3712 2723 3790 2745 C 3861 2766 4282 2765 4325 2745 z M 4824 2741 C 4876 2706 4879 2692 4880 2467 L 4880 2258 L 4838 2265 C 4814 2269 4786 2277 4775 2283 C 4764 2289 4749 2293 4743 2292 C 4735 2290 4732 2296 4736 2307 C 4741 2323 4740 2324 4728 2309 C 4717 2295 4705 2294 4655 2302 C 4622 2307 4586 2312 4575 2313 C 4552 2315 4542 2349 4562 2362 C 4572 2370 4572 2371 4559 2367 C 4545 2362 4542 2381 4537 2517 C 4528 2738 4542 2759 4705 2760 C 4778 2760 4801 2756 4824 2741 z M 6767 2688 C 6746 2671 6733 2666 6718 2669 C 6713 2669 6710 2666 6710 2660 C 6710 2655 6700 2646 6688 2640 C 6666 2629 6666 2630 6684 2644 C 6704 2660 6704 2660 6684 2661 C 6674 2661 6671 2664 6678 2667 C 6684 2669 6688 2676 6684 2681 C 6681 2686 6686 2690 6694 2690 C 6703 2690 6710 2694 6710 2700 C 6710 2705 6728 2709 6750 2707 C 6790 2705 6790 2705 6767 2688 z" stroke-linecap="round" />
</g>
		<g transform="matrix(0.13 0 0 -0.13 135.53 -328.64)"  >
<path style="stroke: none; stroke-width: 1; stroke-dasharray: none; stroke-linecap: butt; stroke-dashoffset: 0; stroke-linejoin: miter; stroke-miterlimit: 4; fill: rgb(255,255,255); fill-rule: nonzero; opacity: 1;" vector-effect="non-scaling-stroke"  transform=" translate(-6194.97, -7795.69)" d="M 6275 8006 C 6262 7993 6248 7970 6244 7956 C 6237 7927 6237 7927 6114 7912 C 6069 7906 5997 7887 5954 7871 C 5879 7842 5750 7766 5750 7752 C 5750 7742 5890 7575 5898 7575 C 5902 7575 5941 7589 5985 7607 C 6073 7641 6181 7666 6205 7657 C 6213 7653 6220 7642 6220 7632 C 6220 7600 6258 7560 6289 7560 C 6329 7560 6570 7609 6594 7622 C 6638 7646 6652 7689 6629 7733 C 6618 7753 6540 7841 6408 7983 C 6355 8039 6315 8046 6275 8006 z" stroke-linecap="round" />
</g>
		<g transform="matrix(0.13 0 0 -0.13 -169.87 -301.51)"  >
<path style="stroke: none; stroke-width: 1; stroke-dasharray: none; stroke-linecap: butt; stroke-dashoffset: 0; stroke-linejoin: miter; stroke-miterlimit: 4; fill: rgb(255,255,255); fill-rule: nonzero; opacity: 1;" vector-effect="non-scaling-stroke"  transform=" translate(-3904.5, -7592.18)" d="M 3882 7968 C 3845 7922 3812 7688 3803 7406 L 3797 7207 L 3836 7216 C 3886 7226 3925 7227 3974 7217 L 4012 7209 L 4006 7327 C 3994 7546 3982 7681 3964 7805 C 3944 7938 3912 8003 3882 7968 z" stroke-linecap="round" />
</g>
		<g transform="matrix(0.13 0 0 -0.13 223.61 -231.25)"  >
<path style="stroke: none; stroke-width: 1; stroke-dasharray: none; stroke-linecap: butt; stroke-dashoffset: 0; stroke-linejoin: miter; stroke-miterlimit: 4; fill: rgb(255,255,255); fill-rule: nonzero; opacity: 1;" vector-effect="non-scaling-stroke"  transform=" translate(-6855.58, -7065.27)" d="M 6845 7548 C 6811 7519 6770 7483 6752 7468 L 6720 7442 L 6745 7388 C 6758 7359 6774 7304 6781 7266 C 6794 7186 6788 6992 6770 6943 C 6758 6911 6756 6910 6700 6910 C 6647 6910 6639 6907 6616 6879 C 6586 6843 6583 6815 6608 6779 C 6649 6719 6790 6552 6805 6546 C 6842 6532 6861 6544 6956 6643 C 7087 6778 7120 6817 7120 6838 C 7120 6847 7102 6879 7079 6909 L 7038 6963 L 7045 7059 C 7056 7219 7026 7380 6960 7509 C 6909 7609 6914 7608 6845 7548 z" stroke-linecap="round" />
</g>
		<g transform="matrix(0.13 0 0 -0.13 54.34 -229.37)"  >
<path style="stroke: none; stroke-width: 1; stroke-dasharray: none; stroke-linecap: butt; stroke-dashoffset: 0; stroke-linejoin: miter; stroke-miterlimit: 4; fill: rgb(255,255,255); fill-rule: nonzero; opacity: 1;" vector-effect="non-scaling-stroke"  transform=" translate(-5586.1, -7051.15)" d="M 5524 7528 C 5445 7403 5410 7277 5403 7091 L 5397 6947 L 5364 6911 C 5346 6891 5328 6862 5325 6847 C 5316 6811 5341 6774 5467 6643 C 5543 6564 5572 6540 5592 6540 C 5612 6540 5643 6566 5729 6656 C 5840 6772 5857 6799 5846 6845 C 5835 6889 5802 6910 5744 6910 C 5704 6910 5690 6914 5685 6928 C 5681 6937 5675 6999 5673 7065 C 5667 7194 5678 7256 5724 7371 L 5747 7429 L 5706 7456 C 5684 7471 5645 7500 5620 7520 C 5552 7575 5553 7575 5524 7528 z" stroke-linecap="round" />
</g>
		<g transform="matrix(0.13 0 0 -0.13 -249.87 -265.22)"  >
<path style="stroke: none; stroke-width: 1; stroke-dasharray: none; stroke-linecap: butt; stroke-dashoffset: 0; stroke-linejoin: miter; stroke-miterlimit: 4; fill: rgb(255,255,255); fill-rule: nonzero; opacity: 1;" vector-effect="non-scaling-stroke"  transform=" translate(-3304.51, -7320)" d="M 3270 7459 C 3244 7405 3217 7377 3157 7345 C 3114 7322 3114 7313 3161 7287 C 3210 7260 3245 7224 3272 7174 C 3284 7150 3298 7130 3302 7130 C 3306 7130 3318 7147 3329 7168 C 3351 7211 3412 7270 3460 7295 C 3496 7313 3492 7323 3442 7349 C 3397 7372 3361 7411 3330 7468 C 3317 7491 3303 7510 3300 7510 C 3296 7510 3283 7487 3270 7459 z" stroke-linecap="round" />
</g>
		<g transform="matrix(0.13 0 0 -0.13 118.13 -239.81)"  >
<path style="stroke: none; stroke-width: 1; stroke-dasharray: none; stroke-linecap: butt; stroke-dashoffset: 0; stroke-linejoin: miter; stroke-miterlimit: 4; fill: rgb(255,255,255); fill-rule: nonzero; opacity: 1;" vector-effect="non-scaling-stroke"  transform=" translate(-6064.48, -7129.42)" d="M 6019 7361 C 5930 7332 5915 7296 5916 7123 C 5918 6967 5931 6934 6002 6905 C 6099 6866 6200 6927 6200 7025 C 6200 7060 6200 7060 6155 7060 C 6118 7060 6110 7057 6110 7042 C 6110 7020 6080 6990 6059 6990 C 6026 6990 6020 7013 6020 7130 C 6020 7207 6024 7250 6032 7258 C 6051 7277 6078 7272 6096 7245 C 6110 7224 6120 7220 6162 7220 L 6213 7220 L 6206 7252 C 6198 7291 6177 7325 6147 7344 C 6119 7363 6053 7372 6019 7361 z" stroke-linecap="round" />
</g>
		<g transform="matrix(0.13 0 0 -0.13 163.48 -239.8)"  >
<path style="stroke: none; stroke-width: 1; stroke-dasharray: none; stroke-linecap: butt; stroke-dashoffset: 0; stroke-linejoin: miter; stroke-miterlimit: 4; fill: rgb(255,255,255); fill-rule: nonzero; opacity: 1;" vector-effect="non-scaling-stroke"  transform=" translate(-6404.59, -7129.42)" d="M 6337 7353 C 6274 7327 6260 7286 6260 7128 C 6260 6975 6272 6938 6331 6908 C 6403 6871 6503 6899 6534 6965 C 6549 6996 6551 7024 6548 7140 C 6545 7261 6542 7282 6524 7307 C 6481 7365 6409 7383 6337 7353 z M 6440 7251 C 6445 7240 6450 7186 6450 7130 C 6450 7018 6441 6990 6405 6990 C 6369 6990 6360 7018 6360 7130 C 6360 7242 6369 7270 6405 7270 C 6419 7270 6434 7262 6440 7251 z" stroke-linecap="round" />
</g>
		<g transform="matrix(0.13 0 0 -0.13 -170.09 -215.71)"  >
<path style="stroke: none; stroke-width: 1; stroke-dasharray: none; stroke-linecap: butt; stroke-dashoffset: 0; stroke-linejoin: miter; stroke-miterlimit: 4; fill: rgb(255,255,255); fill-rule: nonzero; opacity: 1;" vector-effect="non-scaling-stroke"  transform=" translate(-3902.87, -6948.67)" d="M 3829 7157 C 3770 7135 3731 7101 3705 7049 C 3629 6901 3734 6730 3901 6730 C 4098 6730 4198 6954 4066 7098 C 4014 7156 3900 7184 3829 7157 z M 3965 7000 C 3995 6970 3991 6913 3956 6884 C 3889 6826 3793 6888 3822 6971 C 3842 7027 3920 7043 3965 7000 z" stroke-linecap="round" />
</g>
		<g transform="matrix(0.13 0 0 -0.13 -242.94 -187.43)"  >
<path style="stroke: none; stroke-width: 1; stroke-dasharray: none; stroke-linecap: butt; stroke-dashoffset: 0; stroke-linejoin: miter; stroke-miterlimit: 4; fill: rgb(255,255,255); fill-rule: nonzero; opacity: 1;" vector-effect="non-scaling-stroke"  transform=" translate(-3356.47, -6736.59)" d="M 3510 6884 C 3331 6820 3038 6660 3007 6608 C 2975 6558 3068 6546 3230 6580 C 3360 6608 3684 6699 3711 6716 C 3716 6719 3705 6741 3686 6766 C 3667 6791 3643 6832 3634 6858 C 3624 6884 3614 6908 3611 6912 C 3608 6915 3562 6903 3510 6884 z" stroke-linecap="round" />
</g>
		<g transform="matrix(0.13 0 0 -0.13 -103.8 -174.74)"  >
<path style="stroke: none; stroke-width: 1; stroke-dasharray: none; stroke-linecap: butt; stroke-dashoffset: 0; stroke-linejoin: miter; stroke-miterlimit: 4; fill: rgb(255,255,255); fill-rule: nonzero; opacity: 1;" vector-effect="non-scaling-stroke"  transform=" translate(-4400, -6641.43)" d="M 4161 6834 C 4143 6799 4113 6757 4094 6740 C 4075 6724 4060 6709 4060 6706 C 4060 6698 4310 6560 4440 6495 C 4605 6414 4702 6381 4724 6399 C 4733 6407 4740 6418 4740 6424 C 4740 6467 4486 6706 4323 6817 C 4187 6910 4200 6909 4161 6834 z" stroke-linecap="round" />
</g>
		<g transform="matrix(0.13 0 0 -0.13 309.2 -162.48)"  >
<path style="stroke: none; stroke-width: 1; stroke-dasharray: none; stroke-linecap: butt; stroke-dashoffset: 0; stroke-linejoin: miter; stroke-miterlimit: 4; fill: rgb(255,255,255); fill-rule: nonzero; opacity: 1;" vector-effect="non-scaling-stroke"  transform=" translate(-7497.5, -6549.5)" d="M 7400 6755 L 7400 6641 L 7283 6638 L 7165 6635 L 7165 6540 L 7165 6445 L 7283 6442 L 7400 6439 L 7400 6334 L 7400 6229 L 7503 6232 L 7605 6235 L 7608 6338 L 7611 6440 L 7720 6440 L 7830 6440 L 7830 6540 L 7830 6640 L 7720 6640 L 7610 6640 L 7610 6694 C 7610 6723 7607 6775 7604 6809 L 7597 6870 L 7499 6870 L 7400 6870 L 7400 6755 z" stroke-linecap="round" />
</g>
		<g transform="matrix(0.13 0 0 -0.13 137.66 -154.72)"  >
<path style="stroke: none; stroke-width: 1; stroke-dasharray: none; stroke-linecap: butt; stroke-dashoffset: 0; stroke-linejoin: miter; stroke-miterlimit: 4; fill: rgb(255,255,255); fill-rule: nonzero; opacity: 1;" vector-effect="non-scaling-stroke"  transform=" translate(-6210.97, -6491.3)" d="M 5891 6544 L 5823 6440 L 5874 6416 C 6068 6324 6309 6309 6509 6376 C 6621 6414 6617 6402 6559 6521 C 6531 6578 6507 6626 6506 6627 C 6505 6628 6482 6623 6455 6614 C 6325 6575 6148 6579 6025 6624 L 5960 6648 L 5891 6544 z" stroke-linecap="round" />
</g>
		<g transform="matrix(0.13 0 0 -0.13 -303.47 -125.84)"  >
<path style="stroke: none; stroke-width: 1; stroke-dasharray: none; stroke-linecap: butt; stroke-dashoffset: 0; stroke-linejoin: miter; stroke-miterlimit: 4; fill: rgb(255,255,255); fill-rule: nonzero; opacity: 1;" vector-effect="non-scaling-stroke"  transform=" translate(-2902.5, -6274.66)" d="M 2892 6538 C 2866 6504 2830 6242 2830 6078 L 2830 6000 L 2903 6000 L 2975 6000 L 2972 6113 C 2968 6257 2943 6505 2930 6531 C 2918 6553 2907 6555 2892 6538 z" stroke-linecap="round" />
</g>
		<g transform="matrix(0.13 0 0 -0.13 -89.8 -87.77)"  >
<path style="stroke: none; stroke-width: 1; stroke-dasharray: none; stroke-linecap: butt; stroke-dashoffset: 0; stroke-linejoin: miter; stroke-miterlimit: 4; fill: rgb(255,255,255); fill-rule: nonzero; opacity: 1;" vector-effect="non-scaling-stroke"  transform=" translate(-4505, -5989.15)" d="M 4484 6148 C 4454 6090 4422 6056 4371 6025 C 4343 6009 4320 5993 4320 5990 C 4320 5986 4335 5977 4353 5968 C 4406 5943 4449 5901 4476 5849 C 4489 5822 4504 5800 4509 5800 C 4514 5800 4532 5825 4549 5855 C 4572 5895 4596 5920 4635 5946 C 4665 5965 4690 5983 4690 5985 C 4690 5988 4668 6004 4641 6020 C 4594 6049 4554 6096 4529 6153 C 4513 6188 4504 6187 4484 6148 z" stroke-linecap="round" />
</g>
		<g transform="matrix(0.13 0 0 -0.13 -274.35 -52.5)"  >
<path style="stroke: none; stroke-width: 1; stroke-dasharray: none; stroke-linecap: butt; stroke-dashoffset: 0; stroke-linejoin: miter; stroke-miterlimit: 4; fill: rgb(255,255,255); fill-rule: nonzero; opacity: 1;" vector-effect="non-scaling-stroke"  transform=" translate(-3120.92, -5724.61)" d="M 2826 5947 C 2800 5933 2778 5909 2762 5878 C 2728 5812 2737 5751 2789 5699 C 2836 5652 2884 5641 2963 5662 L 3020 5677 L 3020 5653 C 3020 5632 3034 5622 3115 5584 C 3246 5523 3352 5489 3433 5483 C 3496 5478 3500 5479 3500 5498 C 3500 5511 3478 5536 3438 5568 C 3353 5635 3168 5755 3114 5777 C 3077 5792 3070 5800 3065 5831 C 3056 5886 3024 5929 2977 5950 C 2922 5976 2874 5975 2826 5947 z M 2942 5853 C 2980 5819 2953 5750 2902 5750 C 2870 5750 2840 5777 2840 5804 C 2840 5860 2902 5890 2942 5853 z" stroke-linecap="round" />
</g>
		<g transform="matrix(0.13 0 0 -0.13 -352.99 -40.43)"  >
<path style="stroke: none; stroke-width: 1; stroke-dasharray: none; stroke-linecap: butt; stroke-dashoffset: 0; stroke-linejoin: miter; stroke-miterlimit: 4; fill: rgb(255,255,255); fill-rule: nonzero; opacity: 1;" vector-effect="non-scaling-stroke"  transform=" translate(-2531.12, -5634.12)" d="M 2605 5732 C 2422 5650 2276 5550 2295 5521 C 2303 5507 2400 5507 2460 5521 C 2541 5539 2735 5601 2755 5616 C 2771 5628 2773 5633 2762 5648 C 2755 5657 2739 5686 2727 5712 C 2701 5768 2689 5770 2605 5732 z" stroke-linecap="round" />
</g>
		<g transform="matrix(0.13 0 0 -0.13 -285.62 199.39)"  >
<path style="stroke: none; stroke-width: 1; stroke-dasharray: none; stroke-linecap: butt; stroke-dashoffset: 0; stroke-linejoin: miter; stroke-miterlimit: 4; fill: rgb(255,255,255); fill-rule: nonzero; opacity: 1;" vector-effect="non-scaling-stroke"  transform=" translate(-3036.4, -3835.47)" d="M 2987 3882 C 2962 3855 2965 3804 2992 3786 C 3060 3738 3139 3820 3085 3880 C 3062 3905 3009 3906 2987 3882 z" stroke-linecap="round" />
</g>
		<g transform="matrix(0.13 0 0 -0.13 -140.16 198.86)"  >
<path style="stroke: none; stroke-width: 1; stroke-dasharray: none; stroke-linecap: butt; stroke-dashoffset: 0; stroke-linejoin: miter; stroke-miterlimit: 4; fill: rgb(255,255,255); fill-rule: nonzero; opacity: 1;" vector-effect="non-scaling-stroke"  transform=" translate(-4127.31, -3839.41)" d="M 4083 3921 C 4030 3888 4017 3844 4045 3791 C 4088 3708 4224 3741 4224 3836 C 4224 3861 4216 3878 4195 3900 C 4155 3939 4123 3945 4083 3921 z" stroke-linecap="round" />
</g>
		<g transform="matrix(0.13 0 0 -0.13 -139.74 286.74)"  >
<path style="stroke: none; stroke-width: 1; stroke-dasharray: none; stroke-linecap: butt; stroke-dashoffset: 0; stroke-linejoin: miter; stroke-miterlimit: 4; fill: rgb(255,255,255); fill-rule: nonzero; opacity: 1;" vector-effect="non-scaling-stroke"  transform=" translate(-4130.46, -3180.32)" d="M 4081 3266 C 4021 3233 4014 3164 4065 3113 C 4097 3081 4105 3078 4138 3083 C 4185 3091 4230 3138 4230 3181 C 4230 3203 4220 3222 4196 3246 C 4159 3283 4123 3289 4081 3266 z" stroke-linecap="round" />
</g>
		<g transform="matrix(0.13 0 0 -0.13 18.3 398.76)"  >
<path style="stroke: none; stroke-width: 1; stroke-dasharray: none; stroke-linecap: butt; stroke-dashoffset: 0; stroke-linejoin: miter; stroke-miterlimit: 4; fill: rgb(255,255,255); fill-rule: nonzero; opacity: 1;" vector-effect="non-scaling-stroke"  transform=" translate(-5315.75, -2340.18)" d="M 5313 2340 C 5313 2304 5315 2290 5317 2308 C 5319 2325 5319 2355 5317 2373 C 5315 2390 5313 2376 5313 2340 z" stroke-linecap="round" />
</g>
		<g transform="matrix(0.13 0 0 -0.13 -63.88 399.6)"  >
<path style="stroke: none; stroke-width: 1; stroke-dasharray: none; stroke-linecap: butt; stroke-dashoffset: 0; stroke-linejoin: miter; stroke-miterlimit: 4; fill: rgb(255,255,255); fill-rule: nonzero; opacity: 1;" vector-effect="non-scaling-stroke"  transform=" translate(-4699.44, -2333.92)" d="M 4684 2339 C 4685 2332 4694 2326 4703 2324 C 4712 2323 4718 2326 4714 2331 C 4711 2336 4705 2338 4700 2335 C 4696 2332 4689 2335 4687 2340 C 4684 2346 4683 2345 4684 2339 z" stroke-linecap="round" />
</g>
</g>
</g>
</svg>