<?xml version="1.0" standalone="no"?>
<!DOCTYPE svg PUBLIC "-//W3C//DTD SVG 20010904//EN"
 "http://www.w3.org/TR/2001/REC-SVG-20010904/DTD/svg10.dtd">
<svg version="1.0" xmlns="http://www.w3.org/2000/svg"
 width="1024.000000pt" height="1024.000000pt" viewBox="0 0 1024.000000 1024.000000"
 preserveAspectRatio="xMidYMid meet">

<g transform="translate(0.000000,1024.000000) scale(0.100000,-0.100000)"
fill="#000000" stroke="none">
<path d="M4880 8724 c-590 -51 -1121 -236 -1620 -565 -204 -134 -329 -238
-525 -434 -299 -300 -513 -608 -680 -980 -167 -371 -245 -676 -280 -1090 -27
-311 -13 -656 36 -915 57 -302 158 -589 315 -900 334 -661 744 -1102 1354
-1455 400 -233 793 -367 1258 -432 182 -25 705 -25 877 0 563 83 1022 260
1484 574 681 463 1190 1194 1405 2017 35 131 51 205 61 281 3 22 10 74 15 115
19 132 21 608 4 760 -46 418 -142 761 -319 1136 -157 332 -395 657 -696 949
-268 259 -499 418 -870 599 -341 166 -669 266 -1061 322 -108 15 -641 28 -758
18z m478 -294 c686 -48 1282 -276 1792 -685 117 -94 304 -272 400 -380 176
-200 381 -524 486 -766 113 -264 205 -575 229 -774 4 -33 9 -69 12 -80 2 -11
7 -110 12 -220 13 -354 -14 -665 -79 -912 -41 -153 -75 -225 -113 -235 -39 -9
-75 6 -87 37 -6 16 -10 233 -10 553 0 317 -4 553 -11 592 -25 161 -157 339
-305 413 -142 71 -75 68 -1256 65 l-1063 -3 -63 -27 c-181 -78 -316 -231 -363
-412 -17 -64 -18 -122 -19 -616 0 -514 -1 -546 -19 -570 l-18 -25 -402 -3
-401 -2 0 42 c0 24 -3 81 -5 128 -5 85 -16 361 -35 855 -5 143 -12 314 -15
380 -3 66 -10 221 -15 345 -5 124 -12 270 -15 325 -2 55 -5 125 -5 155 l0 56
-94 -1 -94 0 -6 -80 c-4 -44 -11 -183 -16 -310 -6 -126 -15 -331 -20 -455 -6
-124 -15 -326 -20 -450 -6 -124 -14 -322 -20 -440 -5 -118 -12 -290 -16 -382
l-7 -168 -337 0 -336 0 -18 373 c-9 204 -19 397 -21 427 -2 30 -7 129 -10 220
-4 91 -9 174 -11 185 -4 18 -13 21 -64 20 l-58 0 -6 -70 c-3 -38 -8 -128 -11
-200 -3 -71 -10 -209 -15 -305 -5 -96 -12 -231 -15 -300 -3 -69 -8 -176 -11
-237 l-6 -113 -268 0 -268 0 -20 33 c-47 75 -112 339 -143 577 -15 116 -20
512 -8 635 75 774 419 1470 979 1982 119 109 322 266 445 346 90 57 309 172
443 232 312 138 657 221 1007 242 55 3 102 7 104 9 8 7 163 4 309 -6z m2156
-2688 c102 -47 178 -131 218 -240 19 -53 21 -87 28 -477 5 -231 6 -424 3 -429
-3 -5 -19 36 -35 90 -125 424 -475 747 -923 852 -613 144 -1257 -229 -1449
-838 -14 -43 -33 -136 -43 -205 -9 -69 -21 -125 -25 -125 -5 0 -28 19 -52 43
-41 42 -43 46 -49 122 -11 124 -8 843 3 913 25 150 112 262 239 308 29 11 235
13 1036 11 l1000 -2 49 -23z m-1044 -537 c0 -31 -29 -416 -34 -465 -3 -19 -12
-134 -21 -255 -16 -225 -22 -252 -67 -308 -20 -24 -23 -40 -23 -107 0 -71 3
-82 30 -122 88 -125 279 -123 362 4 21 32 28 56 31 108 4 70 -6 102 -47 149
-15 17 -21 39 -22 73 -1 26 -2 51 -3 56 -2 4 -6 48 -10 97 -4 50 -12 126 -17
170 -14 127 -49 536 -49 584 l0 43 57 -7 c156 -19 340 -96 460 -192 188 -150
324 -399 340 -619 6 -82 7 -84 32 -85 14 -1 80 -2 146 -3 l120 -1 -3 -55 c-10
-211 -93 -446 -225 -640 -66 -96 -213 -243 -308 -307 -130 -88 -254 -144 -404
-183 -114 -30 -366 -38 -491 -16 -163 28 -319 92 -471 193 -79 52 -241 215
-303 303 -137 198 -230 463 -230 661 l0 51 38 -2 c20 -1 85 -2 145 -1 l107 1
0 49 c0 76 45 237 94 336 91 182 240 331 422 421 91 45 251 93 312 94 28 0 32
-3 32 -25z m-3174 -1164 c46 -30 54 -61 54 -201 0 -146 -10 -179 -60 -205 -24
-12 -81 -15 -335 -15 -351 0 -346 -1 -428 90 -107 118 -96 267 23 328 45 23
48 23 385 20 273 -2 344 -6 361 -17z m1019 5 c57 -24 64 -45 66 -202 3 -154
-2 -168 -58 -205 -26 -17 -53 -19 -311 -19 l-282 0 -38 34 -37 34 0 150 c0
147 1 151 25 177 14 15 34 31 45 35 11 5 141 9 288 9 209 1 275 -2 302 -13z
m505 -1 c51 -26 60 -59 60 -210 0 -199 -13 -215 -175 -215 -165 0 -175 12
-175 222 0 159 6 179 64 204 44 19 189 18 226 -1z m-1559 -645 c19 -6 46 -22
60 -36 23 -24 24 -34 27 -159 5 -191 -18 -225 -154 -225 -85 0 -138 24 -209
95 -88 89 -117 181 -79 260 26 56 79 75 209 75 61 0 126 -5 146 -10z m1052 -4
c57 -23 66 -48 68 -197 3 -154 -7 -185 -66 -213 -31 -15 -68 -17 -308 -14
-243 3 -275 5 -299 21 -46 32 -58 73 -58 202 0 131 10 163 63 195 30 18 52 20
300 20 203 0 275 -3 300 -14z m507 -1 c50 -26 60 -59 60 -200 0 -204 -24 -231
-199 -223 -91 4 -94 5 -122 36 l-29 32 0 149 c0 136 2 150 21 175 12 15 31 32
43 36 37 15 194 12 226 -5z m578 -65 c48 -44 131 -113 184 -153 l97 -72 -22
-17 c-67 -53 -250 -98 -397 -98 l-68 0 -7 104 c-4 57 -6 141 -3 186 3 75 6 84
31 106 18 16 41 24 63 24 31 0 48 -11 122 -80z m801 -509 c30 -16 236 -71 316
-84 68 -11 80 -16 80 -33 0 -10 -4 -22 -10 -26 -13 -10 14 -28 31 -21 8 3 20
-1 27 -9 12 -11 12 -16 1 -26 -7 -7 -18 -12 -24 -12 -5 0 -10 -4 -10 -10 0 -5
-12 -10 -27 -10 -14 0 -23 -3 -20 -7 21 -20 -260 -141 -460 -198 l-23 -6 0
245 0 246 51 -21 c29 -11 59 -24 68 -28z m-508 -21 l119 0 0 -245 0 -245 -26
-10 c-14 -6 -41 -10 -59 -10 -33 0 -34 1 -38 48 l-3 47 -2 -51 -2 -51 -92 -12
c-51 -7 -162 -15 -245 -18 l-153 -6 -1 76 c-1 43 -1 136 -1 207 0 72 0 161 1
200 l1 69 141 0 c78 0 145 3 148 7 3 3 26 3 50 0 24 -3 97 -6 162 -6z m-1366
-55 c18 -9 37 -27 44 -41 12 -26 16 -271 5 -312 -6 -21 -7 -21 -21 -5 -8 10
-12 12 -8 6 10 -20 -77 -8 -194 27 -174 52 -535 224 -533 255 0 10 94 48 172
70 71 21 492 20 535 0z m499 -4 c52 -35 55 -49 56 -274 l0 -209 -42 7 c-24 4
-52 12 -63 18 -11 6 -26 10 -32 9 -8 -2 -11 4 -7 15 5 16 4 17 -8 2 -11 -14
-23 -15 -73 -7 -33 5 -69 10 -80 11 -23 2 -33 36 -13 49 10 8 10 9 -3 5 -14
-5 -17 14 -22 150 -9 221 5 242 168 243 73 0 96 -4 119 -19z m1943 -53 c-21
-17 -34 -22 -49 -19 -5 0 -8 -3 -8 -9 0 -5 -10 -14 -22 -20 -22 -11 -22 -10
-4 4 20 16 20 16 0 17 -10 0 -13 3 -6 6 6 2 10 9 6 14 -3 5 2 9 10 9 9 0 16 4
16 10 0 5 18 9 40 7 40 -2 40 -2 17 -19z"/>
<path d="M6275 8006 c-13 -13 -27 -36 -31 -50 -7 -29 -7 -29 -130 -44 -45 -6
-117 -25 -160 -41 -75 -29 -204 -105 -204 -119 0 -10 140 -177 148 -177 4 0
43 14 87 32 88 34 196 59 220 50 8 -4 15 -15 15 -25 0 -32 38 -72 69 -72 40 0
281 49 305 62 44 24 58 67 35 111 -11 20 -89 108 -221 250 -53 56 -93 63 -133
23z"/>
<path d="M3882 7968 c-37 -46 -70 -280 -79 -562 l-6 -199 39 9 c50 10 89 11
138 1 l38 -8 -6 118 c-12 219 -24 354 -42 478 -20 133 -52 198 -82 163z"/>
<path d="M6845 7548 c-34 -29 -75 -65 -93 -80 l-32 -26 25 -54 c13 -29 29 -84
36 -122 13 -80 7 -274 -11 -323 -12 -32 -14 -33 -70 -33 -53 0 -61 -3 -84 -31
-30 -36 -33 -64 -8 -100 41 -60 182 -227 197 -233 37 -14 56 -2 151 97 131
135 164 174 164 195 0 9 -18 41 -41 71 l-41 54 7 96 c11 160 -19 321 -85 450
-51 100 -46 99 -115 39z"/>
<path d="M5524 7528 c-79 -125 -114 -251 -121 -437 l-6 -144 -33 -36 c-18 -20
-36 -49 -39 -64 -9 -36 16 -73 142 -204 76 -79 105 -103 125 -103 20 0 51 26
137 116 111 116 128 143 117 189 -11 44 -44 65 -102 65 -40 0 -54 4 -59 18 -4
9 -10 71 -12 137 -6 129 5 191 51 306 l23 58 -41 27 c-22 15 -61 44 -86 64
-68 55 -67 55 -96 8z"/>
<path d="M3270 7459 c-26 -54 -53 -82 -113 -114 -43 -23 -43 -32 4 -58 49 -27
84 -63 111 -113 12 -24 26 -44 30 -44 4 0 16 17 27 38 22 43 83 102 131 127
36 18 32 28 -18 54 -45 23 -81 62 -112 119 -13 23 -27 42 -30 42 -4 0 -17 -23
-30 -51z"/>
<path d="M6019 7361 c-89 -29 -104 -65 -103 -238 2 -156 15 -189 86 -218 97
-39 198 22 198 120 0 35 0 35 -45 35 -37 0 -45 -3 -45 -18 0 -22 -30 -52 -51
-52 -33 0 -39 23 -39 140 0 77 4 120 12 128 19 19 46 14 64 -13 14 -21 24 -25
66 -25 l51 0 -7 32 c-8 39 -29 73 -59 92 -28 19 -94 28 -128 17z"/>
<path d="M6337 7353 c-63 -26 -77 -67 -77 -225 0 -153 12 -190 71 -220 72 -37
172 -9 203 57 15 31 17 59 14 175 -3 121 -6 142 -24 167 -43 58 -115 76 -187
46z m103 -102 c5 -11 10 -65 10 -121 0 -112 -9 -140 -45 -140 -36 0 -45 28
-45 140 0 112 9 140 45 140 14 0 29 -8 35 -19z"/>
<path d="M3829 7157 c-59 -22 -98 -56 -124 -108 -76 -148 29 -319 196 -319
197 0 297 224 165 368 -52 58 -166 86 -237 59z m136 -157 c30 -30 26 -87 -9
-116 -67 -58 -163 4 -134 87 20 56 98 72 143 29z"/>
<path d="M3510 6884 c-179 -64 -472 -224 -503 -276 -32 -50 61 -62 223 -28
130 28 454 119 481 136 5 3 -6 25 -25 50 -19 25 -43 66 -52 92 -10 26 -20 50
-23 54 -3 3 -49 -9 -101 -28z"/>
<path d="M4161 6834 c-18 -35 -48 -77 -67 -94 -19 -16 -34 -31 -34 -34 0 -8
250 -146 380 -211 165 -81 262 -114 284 -96 9 8 16 19 16 25 0 43 -254 282
-417 393 -136 93 -123 92 -162 17z"/>
<path d="M7400 6755 l0 -114 -117 -3 -118 -3 0 -95 0 -95 118 -3 117 -3 0
-105 0 -105 103 3 102 3 3 103 3 102 109 0 110 0 0 100 0 100 -110 0 -110 0 0
54 c0 29 -3 81 -6 115 l-7 61 -98 0 -99 0 0 -115z"/>
<path d="M5891 6544 l-68 -104 51 -24 c194 -92 435 -107 635 -40 112 38 108
26 50 145 -28 57 -52 105 -53 106 -1 1 -24 -4 -51 -13 -130 -39 -307 -35 -430
10 l-65 24 -69 -104z"/>
<path d="M2892 6538 c-26 -34 -62 -296 -62 -460 l0 -78 73 0 72 0 -3 113 c-4
144 -29 392 -42 418 -12 22 -23 24 -38 7z"/>
<path d="M4484 6148 c-30 -58 -62 -92 -113 -123 -28 -16 -51 -32 -51 -35 0 -4
15 -13 33 -22 53 -25 96 -67 123 -119 13 -27 28 -49 33 -49 5 0 23 25 40 55
23 40 47 65 86 91 30 19 55 37 55 39 0 3 -22 19 -49 35 -47 29 -87 76 -112
133 -16 35 -25 34 -45 -5z"/>
<path d="M2826 5947 c-26 -14 -48 -38 -64 -69 -34 -66 -25 -127 27 -179 47
-47 95 -58 174 -37 l57 15 0 -24 c0 -21 14 -31 95 -69 131 -61 237 -95 318
-101 63 -5 67 -4 67 15 0 13 -22 38 -62 70 -85 67 -270 187 -324 209 -37 15
-44 23 -49 54 -9 55 -41 98 -88 119 -55 26 -103 25 -151 -3z m116 -94 c38 -34
11 -103 -40 -103 -32 0 -62 27 -62 54 0 56 62 86 102 49z"/>
<path d="M2605 5732 c-183 -82 -329 -182 -310 -211 8 -14 105 -14 165 0 81 18
275 80 295 95 16 12 18 17 7 32 -7 9 -23 38 -35 64 -26 56 -38 58 -122 20z"/>
<path d="M2987 3882 c-25 -27 -22 -78 5 -96 68 -48 147 34 93 94 -23 25 -76
26 -98 2z"/>
<path d="M4083 3921 c-53 -33 -66 -77 -38 -130 43 -83 179 -50 179 45 0 25 -8
42 -29 64 -40 39 -72 45 -112 21z"/>
<path d="M4081 3266 c-60 -33 -67 -102 -16 -153 32 -32 40 -35 73 -30 47 8 92
55 92 98 0 22 -10 41 -34 65 -37 37 -73 43 -115 20z"/>
<path d="M5313 2340 c0 -36 2 -50 4 -32 2 17 2 47 0 65 -2 17 -4 3 -4 -33z"/>
<path d="M4684 2339 c1 -7 10 -13 19 -15 9 -1 15 2 11 7 -3 5 -9 7 -14 4 -4
-3 -11 0 -13 5 -3 6 -4 5 -3 -1z"/>
</g>
</svg>
